<svg xmlns="http://www.w3.org/2000/svg" width="48" height="48"><g><g><path fill="#000" fill-opacity="1" d="M 7.0,-9.0 c 0.0,0.0 -14.0,0.0 -14.0,0.0 c -1.1044921875,0.0 -2.0,0.8955078125 -2.0,2.0 c 0.0,0.0 0.0,14.0 0.0,14.0 c 0.0,1.1044921875 0.8955078125,2.0 2.0,2.0 c 0.0,0.0 14.0,0.0 14.0,0.0 c 1.1044921875,0.0 2.0,-0.8955078125 2.0,-2.0 c 0.0,0.0 0.0,-14.0 0.0,-14.0 c 0.0,-1.1044921875 -0.8955078125,-2.0 -2.0,-2.0 c 0.0,0.0 0.0,0.0 0.0,0.0 Z M -2.0,5.00001525879 c 0.0,0.0 -5.0,-5.00001525879 -5.0,-5.00001525879 c 0.0,0.0 1.41409301758,-1.41409301758 1.41409301758,-1.41409301758 c 0.0,0.0 3.58590698242,3.58601379395 3.58590698242,3.58601379395 c 0.0,0.0 7.58590698242,-7.58601379395 7.58590698242,-7.58601379395 c 0.0,0.0 1.41409301758,1.41409301758 1.41409301758,1.41409301758 c 0.0,0.0 -9.0,9.00001525879 -9.0,9.00001525879 Z" transform="translate(24, 24) scale(0.2, 0.2) scale(7.5, 7.5)"/></g></g></svg>