<svg xmlns="http://www.w3.org/2000/svg" width="48" height="48"><g><g><path fill="#000" fill-opacity="1" d="M -7.0,-7.0 l 14.0,0.0 c 0.0,0.0 0.0,0.0 0.0,0.0 l 0.0,14.0 c 0.0,0.0 0.0,0.0 0.0,0.0 l -14.0,0.0 c 0.0,0.0 0.0,0.0 0.0,0.0 l 0.0,-14.0 c 0.0,0.0 0.0,0.0 0.0,0.0 Z M 7.0,-9.0 c 0.0,0.0 -14.0,0.0 -14.0,0.0 c -1.1044921875,0.0 -2.0,0.8955078125 -2.0,2.0 c 0.0,0.0 0.0,14.0 0.0,14.0 c 0.0,1.1044921875 0.8955078125,2.0 2.0,2.0 c 0.0,0.0 14.0,0.0 14.0,0.0 c 1.1044921875,0.0 2.0,-0.8955078125 2.0,-2.0 c 0.0,0.0 0.0,-14.0 0.0,-14.0 c 0.0,-1.1044921875 -0.8955078125,-2.0 -2.0,-2.0 c 0.0,0.0 0.0,0.0 0.0,0.0 Z" transform="translate(24, 24) scale(0.2, 0.2) scale(7.5, 7.5)"/></g></g></svg>